HIERARCHY
ROOT mixamorig:Hips
{
	OFFSET -0.000008 104.274872 1.554316
	CHANNELS 6 Xposition Yposition Zposition Xrotation Yrotation Zrotation
	JOINT mixamorig:Spine
	{
		OFFSET -0.000005 10.181595 0.131519
		CHANNELS 6 Xposition Yposition Zposition Xrotation Yrotation Zrotation
		JOINT mixamorig:Spine1
		{
			OFFSET -0.000000 9.893959 -1.470707
			CHANNELS 6 Xposition Yposition Zposition Xrotation Yrotation Zrotation
			JOINT mixamorig:Spine2
			{
				OFFSET -0.000000 9.220757 -1.370641
				CHANNELS 6 Xposition Yposition Zposition Xrotation Yrotation Zrotation
				JOINT mixamorig:Neck
				{
					OFFSET 0.000001 16.740417 -2.049036
					CHANNELS 6 Xposition Yposition Zposition Xrotation Yrotation Zrotation
					JOINT mixamorig:Head
					{
						OFFSET 0.000000 9.617874 1.685006
						CHANNELS 6 Xposition Yposition Zposition Xrotation Yrotation Zrotation
						JOINT mixamorig:HeadTop_End
						{
							OFFSET 0.000002 22.037354 7.501101
							CHANNELS 6 Xposition Yposition Zposition Xrotation Yrotation Zrotation
							End Site
							{
								OFFSET 0.000168 2310.654297 -282.823242
							}
						}
					}
				}
				JOINT mixamorig:RightShoulder
				{
					OFFSET -4.569970 11.014908 -2.160885
					CHANNELS 6 Xposition Yposition Zposition Xrotation Yrotation Zrotation
					JOINT mixamorig:RightArm
					{
						OFFSET -10.592851 -0.524811 -2.232101
						CHANNELS 6 Xposition Yposition Zposition Xrotation Yrotation Zrotation
						JOINT mixamorig:RightForeArm
						{
							OFFSET -27.841511 0.000031 -0.000004
							CHANNELS 6 Xposition Yposition Zposition Xrotation Yrotation Zrotation
							JOINT mixamorig:RightHand
							{
								OFFSET -28.328831 -0.000015 0.000015
								CHANNELS 6 Xposition Yposition Zposition Xrotation Yrotation Zrotation
								JOINT mixamorig:RightHandThumb1
								{
									OFFSET -2.464806 -1.573990 2.681852
									CHANNELS 6 Xposition Yposition Zposition Xrotation Yrotation Zrotation
									JOINT mixamorig:RightHandThumb2
									{
										OFFSET -3.215179 -1.872803 1.924282
										CHANNELS 6 Xposition Yposition Zposition Xrotation Yrotation Zrotation
										JOINT mixamorig:RightHandThumb3
										{
											OFFSET -2.654831 -1.527969 1.512609
											CHANNELS 6 Xposition Yposition Zposition Xrotation Yrotation Zrotation
											JOINT mixamorig:RightHandThumb4
											{
												OFFSET -2.018814 -1.152008 1.108052
												CHANNELS 6 Xposition Yposition Zposition Xrotation Yrotation Zrotation
												End Site
												{
													OFFSET -188.809540 -114.533607 132.431396
												}
											}
										}
									}
								}
								JOINT mixamorig:RightHandIndex1
								{
									OFFSET -9.108284 -0.517868 2.259835
									CHANNELS 6 Xposition Yposition Zposition Xrotation Yrotation Zrotation
									JOINT mixamorig:RightHandIndex2
									{
										OFFSET -3.699989 0.000000 0.001215
										CHANNELS 6 Xposition Yposition Zposition Xrotation Yrotation Zrotation
										JOINT mixamorig:RightHandIndex3
										{
											OFFSET -2.850006 0.000031 -0.000522
											CHANNELS 6 Xposition Yposition Zposition Xrotation Yrotation Zrotation
											JOINT mixamorig:RightHandIndex4
											{
												OFFSET -2.772186 -0.000015 -0.000020
												CHANNELS 6 Xposition Yposition Zposition Xrotation Yrotation Zrotation
												End Site
												{
													OFFSET -277.218445 0.000000 -0.050231
												}
											}
										}
									}
								}
								JOINT mixamorig:RightHandMiddle1
								{
									OFFSET -9.532516 -0.000031 -0.000023
									CHANNELS 6 Xposition Yposition Zposition Xrotation Yrotation Zrotation
									JOINT mixamorig:RightHandMiddle2
									{
										OFFSET -3.700005 -0.000015 0.003713
										CHANNELS 6 Xposition Yposition Zposition Xrotation Yrotation Zrotation
										JOINT mixamorig:RightHandMiddle3
										{
											OFFSET -2.949974 0.000015 -0.002054
											CHANNELS 6 Xposition Yposition Zposition Xrotation Yrotation Zrotation
											JOINT mixamorig:RightHandMiddle4
											{
												OFFSET -2.946640 0.000000 -0.000156
												CHANNELS 6 Xposition Yposition Zposition Xrotation Yrotation Zrotation
												End Site
												{
													OFFSET -294.664337 0.000000 -0.113670
												}
											}
										}
									}
								}
								JOINT mixamorig:RightHandRing1
								{
									OFFSET -9.103600 -0.043076 -1.865134
									CHANNELS 6 Xposition Yposition Zposition Xrotation Yrotation Zrotation
									JOINT mixamorig:RightHandRing2
									{
										OFFSET -3.379288 0.000000 -0.001055
										CHANNELS 6 Xposition Yposition Zposition Xrotation Yrotation Zrotation
										JOINT mixamorig:RightHandRing3
										{
											OFFSET -2.889687 -0.000015 0.000379
											CHANNELS 6 Xposition Yposition Zposition Xrotation Yrotation Zrotation
											JOINT mixamorig:RightHandRing4
											{
												OFFSET -2.638809 -0.000015 0.000941
												CHANNELS 6 Xposition Yposition Zposition Xrotation Yrotation Zrotation
												End Site
												{
													OFFSET -263.880371 0.000000 0.516020
												}
											}
										}
									}
								}
								JOINT mixamorig:RightHandPinky1
								{
									OFFSET -8.076683 -0.486710 -3.806280
									CHANNELS 6 Xposition Yposition Zposition Xrotation Yrotation Zrotation
									JOINT mixamorig:RightHandPinky2
									{
										OFFSET -3.600014 -0.000015 -0.003747
										CHANNELS 6 Xposition Yposition Zposition Xrotation Yrotation Zrotation
										JOINT mixamorig:RightHandPinky3
										{
											OFFSET -2.099983 0.000000 -0.005739
											CHANNELS 6 Xposition Yposition Zposition Xrotation Yrotation Zrotation
											JOINT mixamorig:RightHandPinky4
											{
												OFFSET -2.115768 -0.000031 -0.003680
												CHANNELS 6 Xposition Yposition Zposition Xrotation Yrotation Zrotation
												End Site
												{
													OFFSET -211.577087 0.000000 -0.350686
												}
											}
										}
									}
								}
							}
						}
					}
				}
				JOINT mixamorig:LeftShoulder
				{
					OFFSET 4.570447 11.014725 -2.160855
					CHANNELS 6 Xposition Yposition Zposition Xrotation Yrotation Zrotation
					JOINT mixamorig:LeftArm
					{
						OFFSET 10.592371 -0.524597 -2.232119
						CHANNELS 6 Xposition Yposition Zposition Xrotation Yrotation Zrotation
						JOINT mixamorig:LeftForeArm
						{
							OFFSET 27.841532 -0.000031 0.000026
							CHANNELS 6 Xposition Yposition Zposition Xrotation Yrotation Zrotation
							JOINT mixamorig:LeftHand
							{
								OFFSET 28.328846 -0.000061 0.000022
								CHANNELS 6 Xposition Yposition Zposition Xrotation Yrotation Zrotation
								JOINT mixamorig:LeftHandThumb1
								{
									OFFSET 2.466141 -1.576172 2.681732
									CHANNELS 6 Xposition Yposition Zposition Xrotation Yrotation Zrotation
									JOINT mixamorig:LeftHandThumb2
									{
										OFFSET 3.217812 -1.872070 1.916482
										CHANNELS 6 Xposition Yposition Zposition Xrotation Yrotation Zrotation
										JOINT mixamorig:LeftHandThumb3
										{
											OFFSET 2.656029 -1.528778 1.514513
											CHANNELS 6 Xposition Yposition Zposition Xrotation Yrotation Zrotation
											JOINT mixamorig:LeftHandThumb4
											{
												OFFSET 2.020889 -1.154053 1.115139
												CHANNELS 6 Xposition Yposition Zposition Xrotation Yrotation Zrotation
												End Site
												{
													OFFSET 190.885437 -115.081749 130.048782
												}
											}
										}
									}
								}
								JOINT mixamorig:LeftHandIndex1
								{
									OFFSET 9.109314 -0.518021 2.259871
									CHANNELS 6 Xposition Yposition Zposition Xrotation Yrotation Zrotation
									JOINT mixamorig:LeftHandIndex2
									{
										OFFSET 3.699989 0.000000 -0.000322
										CHANNELS 6 Xposition Yposition Zposition Xrotation Yrotation Zrotation
										JOINT mixamorig:LeftHandIndex3
										{
											OFFSET 2.850006 0.000000 0.000352
											CHANNELS 6 Xposition Yposition Zposition Xrotation Yrotation Zrotation
											JOINT mixamorig:LeftHandIndex4
											{
												OFFSET 2.774864 -0.000031 -0.000027
												CHANNELS 6 Xposition Yposition Zposition Xrotation Yrotation Zrotation
												End Site
												{
													OFFSET 277.486267 0.000000 -0.009857
												}
											}
										}
									}
								}
								JOINT mixamorig:LeftHandMiddle1
								{
									OFFSET 9.533394 0.000061 0.000044
									CHANNELS 6 Xposition Yposition Zposition Xrotation Yrotation Zrotation
									JOINT mixamorig:LeftHandMiddle2
									{
										OFFSET 3.699989 -0.000015 -0.000231
										CHANNELS 6 Xposition Yposition Zposition Xrotation Yrotation Zrotation
										JOINT mixamorig:LeftHandMiddle3
										{
											OFFSET 2.949997 -0.000015 -0.000059
											CHANNELS 6 Xposition Yposition Zposition Xrotation Yrotation Zrotation
											JOINT mixamorig:LeftHandMiddle4
											{
												OFFSET 2.952896 0.000031 0.000063
												CHANNELS 6 Xposition Yposition Zposition Xrotation Yrotation Zrotation
												End Site
												{
													OFFSET 295.289337 0.000000 0.022810
												}
											}
										}
									}
								}
								JOINT mixamorig:LeftHandRing1
								{
									OFFSET 9.104523 -0.042999 -1.865074
									CHANNELS 6 Xposition Yposition Zposition Xrotation Yrotation Zrotation
									JOINT mixamorig:LeftHandRing2
									{
										OFFSET 3.150009 -0.000031 0.000043
										CHANNELS 6 Xposition Yposition Zposition Xrotation Yrotation Zrotation
										JOINT mixamorig:LeftHandRing3
										{
											OFFSET 2.949982 -0.000015 0.000040
											CHANNELS 6 Xposition Yposition Zposition Xrotation Yrotation Zrotation
											JOINT mixamorig:LeftHandRing4
											{
												OFFSET 2.644348 0.000000 0.000057
												CHANNELS 6 Xposition Yposition Zposition Xrotation Yrotation Zrotation
												End Site
												{
													OFFSET 264.434631 0.000000 0.012105
												}
											}
										}
									}
								}
								JOINT mixamorig:LeftHandPinky1
								{
									OFFSET 8.077789 -0.486847 -3.806259
									CHANNELS 6 Xposition Yposition Zposition Xrotation Yrotation Zrotation
									JOINT mixamorig:LeftHandPinky2
									{
										OFFSET 3.599953 0.000031 0.014727
										CHANNELS 6 Xposition Yposition Zposition Xrotation Yrotation Zrotation
										JOINT mixamorig:LeftHandPinky3
										{
											OFFSET 2.100021 0.000015 0.007705
											CHANNELS 6 Xposition Yposition Zposition Xrotation Yrotation Zrotation
											JOINT mixamorig:LeftHandPinky4
											{
												OFFSET 2.125504 0.000031 0.007517
												CHANNELS 6 Xposition Yposition Zposition Xrotation Yrotation Zrotation
												End Site
												{
													OFFSET 212.550781 0.000000 0.625752
												}
											}
										}
									}
								}
							}
						}
					}
				}
			}
		}
	}
	JOINT mixamorig:RightUpLeg
	{
		OFFSET -8.207787 -6.751648 -1.599560
		CHANNELS 6 Xposition Yposition Zposition Xrotation Yrotation Zrotation
		JOINT mixamorig:RightLeg
		{
			OFFSET -0.000002 -44.370117 0.345942
			CHANNELS 6 Xposition Yposition Zposition Xrotation Yrotation Zrotation
			JOINT mixamorig:RightFoot
			{
				OFFSET 0.000003 -44.423679 -3.043532
				CHANNELS 6 Xposition Yposition Zposition Xrotation Yrotation Zrotation
				JOINT mixamorig:RightToeBase
				{
					OFFSET -0.000002 -8.728671 10.710558
					CHANNELS 6 Xposition Yposition Zposition Xrotation Yrotation Zrotation
					JOINT mixamorig:RightToe_End
					{
						OFFSET -0.000001 -0.000679 9.278119
						CHANNELS 6 Xposition Yposition Zposition Xrotation Yrotation Zrotation
						End Site
						{
							OFFSET 0.000000 -0.067690 927.812134
						}
					}
				}
			}
		}
	}
	JOINT mixamorig:LeftUpLeg
	{
		OFFSET 8.207793 -6.751686 -1.599556
		CHANNELS 6 Xposition Yposition Zposition Xrotation Yrotation Zrotation
		JOINT mixamorig:LeftLeg
		{
			OFFSET -0.000004 -44.370014 0.346954
			CHANNELS 6 Xposition Yposition Zposition Xrotation Yrotation Zrotation
			JOINT mixamorig:LeftFoot
			{
				OFFSET -0.000001 -44.423672 -3.044401
				CHANNELS 6 Xposition Yposition Zposition Xrotation Yrotation Zrotation
				JOINT mixamorig:LeftToeBase
				{
					OFFSET -0.000002 -8.728669 10.710558
					CHANNELS 6 Xposition Yposition Zposition Xrotation Yrotation Zrotation
					JOINT mixamorig:LeftToe_End
					{
						OFFSET -0.000003 -0.000679 9.278133
						CHANNELS 6 Xposition Yposition Zposition Xrotation Yrotation Zrotation
						End Site
						{
							OFFSET 0.000000 -0.068021 927.813477
						}
					}
				}
			}
		}
	}
}
MOTION
Frames: 3
Frame Time: 0.033333
0.000006 104.270477 1.554256 0.000010 0.000003 -0.000113 -0.000005 10.181587 0.131522 0.000001 -0.000003 0.000084 -0.000000 9.893967 -1.470711 0.000001 0.000000 -0.000000 -0.000000 9.220802 -1.370642 0.000000 -0.000000 -0.000000 0.000001 16.740433 -2.049030 0.000000 -0.000000 -0.000000 0.000000 9.617859 1.685014 0.000000 0.000000 0.000000 0.000002 22.037384 7.501101 0.000000 -0.000000 0.000000 -4.569968 11.014880 -2.160881 0.000008 0.000001 -0.000038 -10.592772 -0.524858 -2.231746 88.404245 62.587373 -61.179835 -27.841482 0.000016 0.000575 53.059560 108.151456 -69.137203 -28.328829 0.000005 0.000023 -0.000321 -0.000044 0.000007 -2.464853 -1.574114 2.681954 141.838235 -189.442140 168.643572 -3.215148 -1.872984 1.924404 301.967936 -5.487914 343.861147 -2.654760 -1.528247 1.512809 286.115941 -16.452922 -23.838489 -2.018842 -1.151983 1.108069 0.000000 -0.000001 0.000002 -9.108328 -0.517985 2.260313 249.457715 13.150658 18.921593 -3.700025 -0.000087 0.001678 67.651432 168.809997 -163.386676 -2.850023 -0.000097 -0.000044 66.539163 174.164879 -171.117781 -2.772163 -0.000015 -0.000016 0.000003 -0.000000 -0.000000 -9.532524 -0.000158 0.000435 252.329536 9.256702 12.767887 -3.700026 -0.000141 0.004175 251.878498 7.476770 10.206926 -2.950005 -0.000147 -0.001595 253.235902 5.394882 7.247898 -2.946625 0.000014 -0.000157 -0.000000 0.000001 0.000000 -9.103631 -0.043195 -1.864697 254.096943 8.011657 10.560253 -3.379278 -0.000169 -0.000616 254.469189 3.982109 5.256410 -2.889724 -0.000158 0.000799 255.876481 1.624954 2.135237 -2.638809 -0.000030 0.000941 0.000000 -0.000001 0.000000 -8.076680 -0.486851 -3.805863 255.201877 7.369919 9.425618 -3.599986 -0.000230 -0.003336 257.487968 -1.344919 -2.076954 -2.099959 -0.000229 -0.005368 258.460997 -5.013967 -6.406466 -2.115770 -0.000040 -0.003682 -0.000000 -0.000000 -0.000003 4.570446 11.014691 -2.160851 -0.000018 0.000010 -0.000021 10.592540 -0.524523 -2.232407 76.566311 -62.491948 51.176675 27.841732 -0.000060 -0.000106 55.448131 -106.732354 70.503781 28.328823 -0.000029 0.000027 0.000019 -0.000088 0.000000 2.466171 -1.576160 2.681877 139.086994 185.614899 -168.436372 3.217833 -1.871949 1.916585 304.024861 6.677613 15.595154 2.656058 -1.528730 1.514642 301.462721 6.542493 16.536383 2.020905 -1.154040 1.115149 0.000003 0.000003 0.000006 9.109262 -0.517817 2.260125 72.601503 -166.630921 161.880292 3.699937 0.000211 -0.000065 72.719105 -167.381873 162.903741 2.849962 0.000259 0.000585 252.545370 -9.810911 -13.340253 2.774880 -0.000015 -0.000028 0.000000 -0.000000 -0.000000 9.533354 0.000251 0.000286 253.536076 -10.942098 -14.601194 3.699960 0.000224 0.000048 254.668658 -9.602761 -12.566323 2.949978 0.000213 0.000189 255.902572 -9.111290 -11.669173 2.952881 -0.000030 0.000066 0.000000 -0.000000 -0.000000 9.104488 -0.042816 -1.864821 255.121663 -9.843263 -12.779849 3.149971 0.000216 0.000297 259.935772 -9.212828 -10.983429 2.949946 0.000209 0.000285 -96.115556 -8.777374 -9.764875 2.644330 0.000015 0.000054 -0.000003 -0.000002 0.000001 8.077742 -0.486688 -3.806000 259.399602 -10.498984 -13.078552 3.599921 0.000245 0.014996 262.434009 -7.271026 -8.711634 2.099974 0.000204 0.007960 262.901658 -5.472549 -6.605446 2.125497 -0.000016 0.007520 0.000002 0.000001 -0.000000 -8.207786 -6.751667 -1.599560 -0.077001 -0.000003 0.000080 -0.000002 -44.370110 0.345938 0.153719 -0.000000 -0.000000 0.000000 -44.423679 -3.043532 -0.076700 0.000000 -0.000002 -0.000006 -8.728667 10.710559 -0.000009 -0.000000 -0.000000 -0.000001 -0.000679 9.278123 0.000000 -0.000000 -0.000000 8.207792 -6.751710 -1.599556 -0.074518 -0.000003 0.000081 -0.000002 -44.370014 0.346960 0.148822 0.000002 0.000000 -0.000001 -44.423664 -3.044403 -0.074314 0.000000 -0.000002 -0.000004 -8.728671 10.710558 0.000007 -0.000000 -0.000000 0.000000 -0.000680 9.278137 -0.000000 0.000000 -0.000001 
0.000006 104.270477 1.554256 0.000010 0.000003 -0.000113 -0.000005 10.181587 0.131522 0.000001 -0.000003 0.000084 -0.000000 9.893967 -1.470711 0.000001 0.000000 -0.000000 -0.000000 9.220802 -1.370642 0.000000 -0.000000 -0.000000 0.000001 16.740433 -2.049030 0.000000 -0.000000 -0.000000 0.000000 9.617859 1.685014 0.000000 0.000000 0.000000 0.000002 22.037384 7.501101 0.000000 -0.000000 0.000000 -4.569968 11.014880 -2.160881 0.000008 0.000001 -0.000038 -10.592775 -0.524852 -2.231746 88.707785 62.623068 -61.481524 -27.841494 0.000016 0.000591 53.785045 107.871022 -69.706916 -28.328836 0.000005 0.000016 -0.000325 -0.000044 0.000007 -2.464857 -1.574108 2.681973 142.251926 -190.026313 168.659487 -3.215157 -1.872968 1.924399 302.015966 -5.891106 343.839154 -2.654745 -1.528268 1.512840 285.535075 -17.541509 -24.331389 -2.018849 -1.151998 1.108068 -0.000002 -0.000001 0.000002 -9.108323 -0.517961 2.260327 247.943243 13.086208 19.361624 -3.700030 -0.000097 0.001702 66.794107 169.382913 -163.978020 -2.850025 -0.000099 -0.000056 66.364966 174.588760 -171.734520 -2.772161 -0.000015 -0.000015 0.000002 -0.000001 -0.000001 -9.532522 -0.000154 0.000449 251.278534 9.503206 13.355320 -3.700033 -0.000115 0.004187 251.587860 7.254921 9.954299 -2.950004 -0.000159 -0.001600 253.990802 5.085179 6.738837 -2.946632 -0.000000 -0.000156 -0.000000 0.000001 -0.000000 -9.103630 -0.043207 -1.864673 253.556675 8.273201 11.012632 -3.379298 -0.000168 -0.000603 254.608552 4.542134 5.977254 -2.889714 -0.000158 0.000788 256.728561 1.989260 2.562626 -2.638809 -0.000016 0.000942 -0.000000 0.000000 -0.000000 -8.076693 -0.486836 -3.805845 254.275894 7.792446 10.141713 -3.599994 -0.000224 -0.003299 256.970431 -0.144315 -0.577856 -2.099971 -0.000229 -0.005361 258.775814 -3.885662 -4.993119 -2.115782 -0.000056 -0.003682 -0.000000 -0.000000 -0.000004 4.570446 11.014691 -2.160851 -0.000018 0.000010 -0.000021 10.592535 -0.524520 -2.232409 76.420828 -62.298087 50.890251 27.841728 -0.000080 -0.000108 56.452531 -106.011947 70.939315 28.328831 -0.000013 0.000037 0.000020 -0.000088 0.000001 2.466172 -1.576141 2.681877 139.878449 187.358072 -168.472859 3.217850 -1.871939 1.916564 305.098649 6.226558 15.229326 2.656073 -1.528746 1.514619 303.107540 6.531199 16.015661 2.020895 -1.154065 1.115149 0.000002 0.000006 0.000004 9.109267 -0.517802 2.260125 72.642265 -167.823376 163.499129 3.699944 0.000189 -0.000078 72.339763 -168.345380 164.091251 2.849964 0.000238 0.000563 252.334782 -9.035655 -12.336963 2.774890 -0.000015 -0.000028 -0.000000 -0.000000 -0.000001 9.533364 0.000266 0.000279 253.212297 -9.714904 -13.045117 3.699967 0.000213 0.000025 254.620218 -8.831984 -11.570474 2.949975 0.000210 0.000201 255.449075 -8.608338 -11.116687 2.952873 -0.000015 0.000068 -0.000000 -0.000001 -0.000000 9.104484 -0.042796 -1.864824 255.451179 -8.521694 -11.003754 3.149974 0.000201 0.000289 261.424206 -8.953121 -10.398596 2.949958 0.000213 0.000278 -96.119237 -8.948742 -9.955934 2.644319 0.000030 0.000070 0.000003 0.000001 0.000003 8.077749 -0.486664 -3.806015 261.139060 -8.977392 -10.930422 3.599933 0.000209 0.014990 264.048365 -6.321375 -7.424839 2.099988 0.000204 0.007974 262.854257 -4.862747 -5.925699 2.125495 -0.000000 0.007509 0.000003 0.000001 0.000000 -8.207786 -6.751667 -1.599560 -0.077001 -0.000003 0.000080 -0.000002 -44.370110 0.345938 0.153719 -0.000000 -0.000000 0.000000 -44.423679 -3.043532 -0.076700 0.000000 -0.000002 -0.000006 -8.728667 10.710559 -0.000009 -0.000000 -0.000000 -0.000001 -0.000679 9.278123 0.000000 -0.000000 -0.000000 8.207792 -6.751710 -1.599556 -0.074518 -0.000003 0.000081 -0.000002 -44.370014 0.346960 0.148822 0.000002 0.000000 -0.000001 -44.423664 -3.044403 -0.074314 0.000000 -0.000002 -0.000004 -8.728671 10.710558 0.000007 -0.000000 -0.000000 0.000000 -0.000680 9.278137 -0.000000 0.000000 -0.000001 
0.000006 104.270477 1.554256 0.000010 0.000003 -0.000113 -0.000005 10.181587 0.131522 0.000001 -0.000003 0.000084 -0.000000 9.893967 -1.470711 0.000001 0.000000 -0.000000 -0.000000 9.220802 -1.370642 0.000000 -0.000000 -0.000000 0.000001 16.740433 -2.049030 0.000000 -0.000000 -0.000000 0.000000 9.617859 1.685014 0.000000 0.000000 0.000000 0.000002 22.037384 7.501101 0.000000 -0.000000 0.000000 -4.569968 11.014880 -2.160881 0.000008 0.000001 -0.000038 -10.592772 -0.524854 -2.231740 88.737463 62.802838 -61.685542 -27.841488 0.000002 0.000574 54.277533 107.452850 -69.866128 -28.328835 0.000007 0.000018 -0.000322 -0.000043 0.000006 -2.464848 -1.574100 2.681987 141.987871 -189.517901 168.662847 -3.215153 -1.872989 1.924396 301.795952 -5.704866 343.788611 -2.654754 -1.528265 1.512822 284.541528 -17.571041 -24.758824 -2.018822 -1.151985 1.108068 0.000002 -0.000003 0.000000 -9.108322 -0.517980 2.260319 247.909475 13.147684 19.463517 -3.700033 -0.000091 0.001679 67.063298 168.591677 -162.877909 -2.850042 -0.000099 -0.000048 66.638884 173.572893 -170.237342 -2.772172 0.000015 -0.000017 -0.000001 0.000000 0.000000 -9.532530 -0.000170 0.000444 251.353038 9.814838 13.767273 -3.700024 -0.000120 0.004174 251.371097 8.188660 11.290749 -2.950012 -0.000145 -0.001602 253.599788 5.944560 7.933602 -2.946617 0.000030 -0.000157 0.000000 0.000001 0.000000 -9.103619 -0.043197 -1.864686 253.763712 8.564518 11.358411 -3.379289 -0.000169 -0.000601 254.967765 5.434293 7.100079 -2.889720 -0.000151 0.000809 257.157797 2.941906 3.736026 -2.638810 -0.000001 0.000945 -0.000000 -0.000000 0.000000 -8.076691 -0.486844 -3.805838 254.082901 8.024886 10.484779 -3.599993 -0.000236 -0.003334 257.049798 0.282916 -0.037394 -2.099968 -0.000224 -0.005361 258.026215 -3.450536 -4.521676 -2.115766 -0.000026 -0.003678 -0.000002 -0.000000 -0.000004 4.570446 11.014691 -2.160851 -0.000018 0.000010 -0.000021 10.592536 -0.524521 -2.232406 76.151589 -62.320613 50.695221 27.841738 -0.000060 -0.000103 57.009103 -105.646019 71.209203 28.328833 -0.000043 0.000018 0.000023 -0.000089 -0.000001 2.466167 -1.576132 2.681863 139.641811 185.985942 -168.525984 3.217846 -1.871951 1.916566 304.925681 6.518637 15.302426 2.656049 -1.528745 1.514646 303.378589 6.260971 15.905122 2.020890 -1.154086 1.115148 0.000003 0.000003 0.000006 9.109262 -0.517798 2.260105 72.296337 -168.140119 163.825338 3.699954 0.000235 -0.000086 71.816222 -168.727160 164.462090 2.849968 0.000242 0.000613 251.856723 -8.630323 -11.888385 2.774892 -0.000046 -0.000025 -0.000000 -0.000002 0.000001 9.533364 0.000293 0.000288 252.741315 -9.271979 -12.558731 3.699970 0.000210 0.000017 253.801825 -8.498379 -11.299947 2.949978 0.000204 0.000173 254.561014 -8.395608 -11.017029 2.952872 -0.000014 0.000065 0.000000 0.000001 0.000000 9.104507 -0.042809 -1.864834 255.256026 -7.894657 -10.231783 3.149967 0.000214 0.000288 260.461013 -8.540621 -10.089663 2.949955 0.000213 0.000309 -97.151115 -8.856981 -10.033349 2.644311 -0.000001 0.000060 -0.000000 -0.000001 -0.000000 8.077759 -0.486664 -3.806017 260.436506 -8.479786 -10.484556 3.599927 0.000216 0.014979 262.854912 -5.729059 -6.916371 2.099982 0.000195 0.007964 261.194166 -4.496750 -5.677617 2.125496 0.000000 0.007535 -0.000001 0.000001 0.000000 -8.207786 -6.751667 -1.599560 -0.077001 -0.000003 0.000080 -0.000002 -44.370110 0.345938 0.153719 -0.000000 -0.000000 0.000000 -44.423679 -3.043532 -0.076700 0.000000 -0.000002 -0.000006 -8.728667 10.710559 -0.000009 -0.000000 -0.000000 -0.000001 -0.000679 9.278123 0.000000 -0.000000 -0.000000 8.207792 -6.751710 -1.599556 -0.074518 -0.000003 0.000081 -0.000002 -44.370014 0.346960 0.148822 0.000002 0.000000 -0.000001 -44.423664 -3.044403 -0.074314 0.000000 -0.000002 -0.000004 -8.728671 10.710558 0.000007 -0.000000 -0.000000 0.000000 -0.000680 9.278137 -0.000000 0.000000 -0.000001 
